<?xml version="1.0" standalone="no"?>
<!DOCTYPE svg PUBLIC "-//W3C//DTD SVG 20010904//EN"
 "http://www.w3.org/TR/2001/REC-SVG-20010904/DTD/svg10.dtd">
<svg version="1.0" xmlns="http://www.w3.org/2000/svg"
 width="256.000000pt" height="256.000000pt" viewBox="0 0 256.000000 256.000000"
 preserveAspectRatio="xMidYMid meet">
<metadata>
Created by potrace 1.11, written by Peter Selinger 2001-2013
</metadata>
<g transform="translate(0.000000,256.000000) scale(0.100000,-0.100000)"
fill="#000000" stroke="none">
<path d="M1215 2399 c-122 -8 -194 -22 -305 -61 -259 -91 -491 -285 -612 -513
-17 -33 -34 -62 -37 -65 -3 -3 -8 -14 -9 -25 -2 -10 -12 -37 -22 -60 -23 -51
-32 -76 -35 -95 -2 -8 -6 -26 -9 -40 -4 -14 -9 -43 -12 -65 -3 -22 -9 -53 -13
-70 -4 -16 -7 -60 -6 -97 0 -39 -4 -68 -10 -68 -5 0 -5 -4 2 -8 6 -4 10 -22 9
-40 -1 -17 2 -32 7 -32 5 0 3 -8 -4 -17 -10 -11 -10 -14 -1 -9 8 5 12 -2 12
-24 0 -17 9 -64 20 -106 11 -41 17 -80 14 -86 -5 -7 -2 -8 6 -3 10 6 12 3 8
-13 -4 -12 -2 -20 3 -16 8 4 11 -9 8 -33 0 -3 6 -10 15 -15 9 -5 16 -17 16
-26 0 -10 5 -23 12 -30 7 -7 9 -12 4 -12 -4 0 0 -7 9 -16 9 -9 13 -24 10 -32
-3 -9 -3 -13 1 -9 10 9 45 -44 37 -56 -4 -6 -1 -7 7 -2 10 6 12 4 7 -9 -4 -10
-3 -15 3 -11 5 3 14 -5 21 -17 7 -13 18 -27 25 -31 8 -4 14 -12 14 -17 0 -5
18 -28 40 -50 40 -40 51 -58 28 -44 -7 4 -8 3 -4 -5 4 -6 12 -9 17 -6 8 6 60
-38 56 -46 -1 -2 0 -3 2 -2 11 6 42 -20 37 -32 -3 -9 0 -12 8 -9 7 3 20 -1 27
-8 21 -19 119 -78 131 -78 6 0 8 -10 5 -22 -5 -19 -4 -21 6 -8 11 14 17 13 57
-6 25 -12 44 -25 43 -30 -1 -5 1 -11 4 -14 4 -3 3 1 -1 7 -4 8 -2 13 6 12 20
-1 50 -14 49 -22 -2 -18 0 -21 7 -10 6 9 18 9 52 1 25 -6 47 -14 50 -17 3 -3
13 -6 23 -7 78 -4 82 -4 67 -14 -9 -6 -10 -10 -3 -10 6 0 14 4 17 9 3 5 15 7
26 4 11 -3 18 -9 15 -13 -3 -5 -1 -12 5 -15 6 -4 9 -1 8 6 -2 7 5 15 15 17 9
2 17 -2 17 -8 0 -6 -5 -8 -12 -4 -7 5 -8 3 -3 -6 6 -10 11 -10 20 3 14 20 30
23 19 5 -6 -10 -4 -10 7 -1 14 14 33 18 26 5 -3 -4 5 -7 18 -7 13 0 21 3 19 6
-2 3 11 6 29 6 43 0 120 12 192 29 103 25 145 39 215 72 30 14 58 25 63 24 4
-1 7 2 7 8 0 5 5 10 10 10 6 0 24 10 39 21 16 12 34 18 40 14 7 -4 10 -1 9 7
-2 7 5 12 14 12 10 -1 16 1 15 5 -2 8 35 51 45 51 5 0 36 28 70 63 34 34 66
62 72 62 6 0 11 5 11 10 1 20 58 94 68 88 6 -4 8 0 5 8 -7 17 26 61 37 51 5
-4 5 -2 2 4 -9 15 47 126 58 116 5 -4 5 -1 1 6 -4 6 -4 18 1 25 4 6 8 19 10
27 1 8 6 16 12 18 5 2 7 10 4 18 -3 8 0 14 7 14 6 0 8 5 5 10 -4 6 1 22 10 37
9 14 13 23 7 19 -13 -8 18 117 32 126 7 5 6 8 -3 8 -10 0 -11 3 -2 14 8 10 9
16 1 21 -6 4 -7 13 -1 23 4 9 6 23 3 31 -3 10 0 11 9 5 11 -6 12 -5 2 7 -10
12 -10 18 0 29 9 10 9 11 0 6 -16 -9 -16 -1 -2 26 6 11 7 18 2 15 -5 -3 -10
17 -11 46 -1 67 -16 165 -26 175 -3 3 0 12 6 21 7 9 8 13 4 9 -5 -5 -21 29
-36 75 -137 424 -511 726 -960 773 -30 3 -59 6 -65 8 -5 1 -55 -1 -110 -5z"/>
<path d="M660 326 c0 -2 8 -10 18 -17 15 -13 16 -12 3 4 -13 16 -21 21 -21 13z"/>
<path d="M1639 193 c-13 -16 -12 -17 4 -4 16 13 21 21 13 21 -2 0 -10 -8 -17
-17z"/>
<path d="M1496 158 c3 -5 10 -6 15 -3 13 9 11 12 -6 12 -8 0 -12 -4 -9 -9z"/>
</g>
</svg>
